<mxfile host="65bd71144e">
    <diagram id="P7dNhTZpqUC8iM-z53Pu" name="Page-1">
        <mxGraphModel dx="549" dy="413" grid="0" gridSize="10" guides="1" tooltips="1" connect="1" arrows="1" fold="1" page="1" pageScale="1" pageWidth="850" pageHeight="1100" math="0" shadow="0">
            <root>
                <mxCell id="0"/>
                <mxCell id="1" parent="0"/>
                <mxCell id="2" value="" style="endArrow=none;html=1;" edge="1" parent="1">
                    <mxGeometry width="50" height="50" relative="1" as="geometry">
                        <mxPoint x="320" y="360" as="sourcePoint"/>
                        <mxPoint x="320" y="40" as="targetPoint"/>
                    </mxGeometry>
                </mxCell>
                <mxCell id="3" value="" style="endArrow=none;html=1;" edge="1" parent="1">
                    <mxGeometry width="50" height="50" relative="1" as="geometry">
                        <mxPoint x="510" y="360" as="sourcePoint"/>
                        <mxPoint x="510" y="40" as="targetPoint"/>
                    </mxGeometry>
                </mxCell>
                <mxCell id="4" value="Peer 1" style="text;html=1;strokeColor=none;fillColor=none;align=center;verticalAlign=middle;whiteSpace=wrap;rounded=0;" vertex="1" parent="1">
                    <mxGeometry x="260" y="30" width="60" height="30" as="geometry"/>
                </mxCell>
                <mxCell id="5" value="Peer 2" style="text;html=1;strokeColor=none;fillColor=none;align=center;verticalAlign=middle;whiteSpace=wrap;rounded=0;" vertex="1" parent="1">
                    <mxGeometry x="510" y="30" width="60" height="30" as="geometry"/>
                </mxCell>
                <mxCell id="6" value="" style="endArrow=none;html=1;exitX=1;exitY=0.25;exitDx=0;exitDy=0;" edge="1" parent="1" source="4">
                    <mxGeometry width="50" height="50" relative="1" as="geometry">
                        <mxPoint x="350" y="70" as="sourcePoint"/>
                        <mxPoint x="510" y="80" as="targetPoint"/>
                    </mxGeometry>
                </mxCell>
                <mxCell id="7" value="" style="endArrow=none;html=1;" edge="1" parent="1">
                    <mxGeometry width="50" height="50" relative="1" as="geometry">
                        <mxPoint x="320" y="120" as="sourcePoint"/>
                        <mxPoint x="510" y="80" as="targetPoint"/>
                    </mxGeometry>
                </mxCell>
                <mxCell id="8" value="VERSION" style="text;html=1;strokeColor=none;fillColor=none;align=center;verticalAlign=middle;whiteSpace=wrap;rounded=0;" vertex="1" parent="1">
                    <mxGeometry x="420" y="30" width="60" height="30" as="geometry"/>
                </mxCell>
                <mxCell id="9" value="VERSION" style="text;html=1;strokeColor=none;fillColor=none;align=center;verticalAlign=middle;whiteSpace=wrap;rounded=0;" vertex="1" parent="1">
                    <mxGeometry x="365" y="70" width="60" height="30" as="geometry"/>
                </mxCell>
                <mxCell id="10" value="" style="endArrow=none;html=1;" edge="1" parent="1">
                    <mxGeometry width="50" height="50" relative="1" as="geometry">
                        <mxPoint x="320" y="120" as="sourcePoint"/>
                        <mxPoint x="510" y="160" as="targetPoint"/>
                    </mxGeometry>
                </mxCell>
                <mxCell id="12" value="chain mass" style="text;html=1;strokeColor=none;fillColor=none;align=center;verticalAlign=middle;whiteSpace=wrap;rounded=0;" vertex="1" parent="1">
                    <mxGeometry x="425" y="100" width="60" height="30" as="geometry"/>
                </mxCell>
                <mxCell id="13" value="" style="endArrow=none;html=1;" edge="1" parent="1">
                    <mxGeometry width="50" height="50" relative="1" as="geometry">
                        <mxPoint x="320" y="200" as="sourcePoint"/>
                        <mxPoint x="510" y="160" as="targetPoint"/>
                    </mxGeometry>
                </mxCell>
                <mxCell id="14" value="chain mass" style="text;html=1;strokeColor=none;fillColor=none;align=center;verticalAlign=middle;whiteSpace=wrap;rounded=0;" vertex="1" parent="1">
                    <mxGeometry x="350" y="150" width="60" height="30" as="geometry"/>
                </mxCell>
                <mxCell id="15" value="" style="endArrow=none;html=1;" edge="1" parent="1">
                    <mxGeometry width="50" height="50" relative="1" as="geometry">
                        <mxPoint x="320" y="200" as="sourcePoint"/>
                        <mxPoint x="510" y="240" as="targetPoint"/>
                    </mxGeometry>
                </mxCell>
                <mxCell id="16" value="100 Peers" style="text;html=1;strokeColor=none;fillColor=none;align=center;verticalAlign=middle;whiteSpace=wrap;rounded=0;" vertex="1" parent="1">
                    <mxGeometry x="410" y="190" width="60" height="30" as="geometry"/>
                </mxCell>
                <mxCell id="17" value="" style="endArrow=none;html=1;" edge="1" parent="1">
                    <mxGeometry width="50" height="50" relative="1" as="geometry">
                        <mxPoint x="320" y="280" as="sourcePoint"/>
                        <mxPoint x="510" y="240" as="targetPoint"/>
                    </mxGeometry>
                </mxCell>
                <mxCell id="18" value="100 Peers" style="text;html=1;strokeColor=none;fillColor=none;align=center;verticalAlign=middle;whiteSpace=wrap;rounded=0;" vertex="1" parent="1">
                    <mxGeometry x="365" y="230" width="60" height="30" as="geometry"/>
                </mxCell>
                <mxCell id="20" value="" style="endArrow=none;html=1;" edge="1" parent="1">
                    <mxGeometry width="50" height="50" relative="1" as="geometry">
                        <mxPoint x="320" y="280" as="sourcePoint"/>
                        <mxPoint x="510" y="320" as="targetPoint"/>
                    </mxGeometry>
                </mxCell>
                <mxCell id="21" value="" style="endArrow=none;html=1;" edge="1" parent="1">
                    <mxGeometry width="50" height="50" relative="1" as="geometry">
                        <mxPoint x="320" y="360" as="sourcePoint"/>
                        <mxPoint x="510" y="320" as="targetPoint"/>
                    </mxGeometry>
                </mxCell>
                <mxCell id="22" value="&quot;SUCCESS&quot;" style="text;html=1;strokeColor=none;fillColor=none;align=center;verticalAlign=middle;whiteSpace=wrap;rounded=0;" vertex="1" parent="1">
                    <mxGeometry x="410" y="270" width="60" height="30" as="geometry"/>
                </mxCell>
                <mxCell id="23" value="&quot;SUCCESS&quot;" style="text;html=1;strokeColor=none;fillColor=none;align=center;verticalAlign=middle;whiteSpace=wrap;rounded=0;" vertex="1" parent="1">
                    <mxGeometry x="360" y="310" width="60" height="30" as="geometry"/>
                </mxCell>
            </root>
        </mxGraphModel>
    </diagram>
</mxfile>